Coordinates
version=1
nRows=5
nColumns=53
inDegrees=yes

Units are S.I. units (second, meters, Newtons, ...)
If the header above contains a line with 'inDegrees', this indicates whether rotational values are in degrees (yes) or radians (no).

endheader
time	pelvis_tilt	pelvis_list	pelvis_rotation	pelvis_tx	pelvis_ty	pelvis_tz	hip_flexion_r	hip_adduction_r	hip_rotation_r	knee_angle_r	knee_flexion_r_beta	ankle_angle_r	subtalar_angle_r	mtp_flexion_r	hip_flexion_l	hip_adduction_l	hip_int_rotation_l	knee_flexion_l	knee_flexion_l_beta	ankle_dorsiflexion_l	subtalar_angle_l	mtp_flexion_l	lumbar_extension	lumbar_bending	lumbar_rotation	thoracic_extension	thoracic_bending	thoracic_rotation	neck_extension	neck_bending	neck_rotation	head_extension	head_tilting	head_rotation	stnclv_protraction_r	stnclv_elevation_r	arm_flex_r	arm_add_r	arm_rot_r	elbow_flex_r	pro_sup_r	wrist_flex_r	wrist_dev_r	stnclv_protraction_l	stnclv_elevation_l	arm_flex_l	arm_add_l	arm_rot_l	elbow_flex_l	pro_sup_l	wrist_flex_l	wrist_dev_l
      1.52083000	     -1.51105867	      1.11877481	    -93.18716477	      1.19518534	      1.13106725	     -0.85547165	      3.83728660	    -12.19359655	    -10.68411433	      9.17697712	      0.16016847	      1.69877767	     14.75175977	      0.00000000	      3.07165233	    -13.16447711	    -16.47483479	     10.64420002	      0.18577634	      0.45460477	     14.91731063	      0.00000000	     16.43693158	      3.89909825	      1.86077932	    -25.52090736	     -3.08997693	      1.86077932	     13.31516501	      1.18266165	     -1.08350055	     -1.91424474	     -0.27952574	     -1.08350055	    -13.51125615	     11.14425980	     83.07521815	    -16.74239927	     13.91803463	     39.78958200	     88.60051450	     36.33988282	     -4.25633518	     -9.31503022	     14.57585257	     86.21445596	    -13.08029381	     13.78876000	     38.85627988	     88.66450059	     29.66093178	      4.66210613
      1.52500000	     -1.49234226	      1.08056522	    -93.13999582	      1.19527560	      1.13111114	     -0.85548078	      3.77392606	    -12.22336127	    -10.78047382	      9.15901636	      0.15985499	      1.71218750	     14.82624540	      0.00000000	      3.03359195	    -13.12951479	    -16.39300801	     10.61374375	      0.18524477	      0.43651092	     14.86764196	      0.00000000	     16.39741504	      3.87050909	      1.83779192	    -25.52346791	     -3.10711548	      1.83779192	     13.23154610	      1.16878369	     -1.08137983	     -1.80196295	     -0.18714060	     -1.08137983	    -13.48237088	     11.12329678	     83.04944451	    -16.78770642	     13.92865311	     39.83092711	     88.59554706	     36.22882009	     -4.20810398	     -9.32353913	     14.63433700	     86.18615895	    -13.07585158	     13.69729002	     38.90186803	     88.66009050	     29.69020460	      4.84131251
      1.52917000	     -1.47591485	      1.07583782	    -93.11137607	      1.19538345	      1.13107809	     -0.85566551	      3.79946542	    -12.25339644	    -10.79662656	      9.21709754	      0.16086870	      1.76163712	     14.78396142	      0.00000000	      3.07396334	    -13.10432272	    -16.30599699	     10.66493096	      0.18613816	      0.47223688	     14.74418576	      0.00000000	     16.28908756	      3.80621425	      1.83562843	    -25.44813799	     -2.99235666	      1.83562843	     13.18744809	      1.05333358	     -1.07474790	     -1.57562597	     -0.25951257	     -1.07474790	    -13.59731886	     11.14024449	     83.11492962	    -16.64443814	     13.87384447	     39.92947954	     88.59297862	     35.72529260	     -3.09942852	     -9.38920165	     14.49647078	     86.20152724	    -13.05975927	     13.78590333	     38.96301178	     88.67091057	     29.31792791	      5.32800422
      1.53333000	     -1.50647485	      1.13131894	    -93.15379115	      1.19530492	      1.13106739	     -0.85556899	      3.83965002	    -12.20086434	    -10.70254827	      9.15976554	      0.15986807	      1.67045075	     14.71786212	      0.00000000	      3.09741806	    -13.15042744	    -16.40735709	     10.63631276	      0.18563868	      0.44865037	     14.87293399	      0.00000000	     16.42796699	      3.85028103	      1.84315956	    -25.55368717	     -3.00584166	      1.84315956	     13.47575755	      1.03438338	     -1.06582754	     -2.06544954	     -0.16170347	     -1.06582754	    -13.55630758	     11.06799139	     83.23074310	    -16.72159532	     14.14313743	     39.68408304	     88.59933215	     36.33143395	     -4.38076276	     -9.38037080	     14.46895497	     86.27074241	    -13.09809404	     13.89800027	     38.84581641	     88.66156250	     29.62255770	      4.69341560
      1.53750000	     -1.47617113	      1.11913353	    -93.19347292	      1.19522831	      1.13108616	     -0.85557910	      3.84243774	    -12.22973085	    -10.64057693	      9.16138333	      0.15989630	      1.67318936	     14.68355898	      0.00000000	      3.05632074	    -13.11743020	    -16.45853447	     10.60290936	      0.18505568	      0.44084948	     14.90375421	      0.00000000	     16.41932029	      3.75610242	      1.89091444	    -25.54865423	     -2.89904605	      1.89091444	     13.37783234	      1.00191386	     -1.07005858	     -1.96599723	     -0.18407657	     -1.07005858	    -13.52674331	     11.16840276	     83.14522109	    -16.77816663	     14.03365016	     39.78293292	     88.60170021	     36.36077670	     -4.33776351	     -9.34078936	     14.47274304	     86.20895280	    -13.10691007	     13.78363225	     38.87014611	     88.66381164	     29.72463619	      4.71485173
